:SAMPLES-PER-SECOND 30
:FULLY-SPECIFIED
:DEGREES
25
root  13.3373 39.9024 1.4522 -143.999 -89.2989 141.078
RightUpLeg  3.3971 -9.2501 -7.93638
RightLeg  2.00272 6.55109 -0.939131
RightFoot  -2.57556 -0.435623 5.46067
RightToes  -8.73116e-010 0 -3.6325e-017
Spine  1.82735 0.4647 1.29247
Spine1  2.40433 0.559742 -0.566188
HEad  -8.65706 -6.73426 -2.73002
LeftShoulder1  0.0199493 3.264 0.148837
LeftArm  -21.6677 3.77676 -16.8577
LeftForeArm  -4.13791 1.22272 2.90886
LeftHand  -0.029455 3.37641 0.0345595
RightShoulder  0.120879 -2.09911 -0.325495
RightArm  -9.68039 0.417585 10.6368
RightForeArm  -0.633158 -1.17414 -2.94921
RightHand  0.0133957 3.85362 -0.0427683
LeftUpLeg  3.78446 8.70849 7.36921
LeftLeg  2.41232 -4.17994 0.6336
LeftFoot  -2.64243 0.288366 -3.50307
LeftToes  -5.63919e-011 3.32596e-011 1.92487e-011
26
root  13.3434 39.9023 1.44638 -143.742 -89.3387 140.813
RightUpLeg  3.40908 -9.2344 -7.90645
RightLeg  1.98349 6.50477 -0.930889
RightFoot  -2.55724 -0.43704 5.48518
RightToes  -8.73116e-010 0 -3.6325e-017
Spine  1.81738 0.436304 1.42736
Spine1  2.41955 0.576396 -0.804223
HEad  -8.4238 -6.83232 -2.90617
LeftShoulder1  0.0192547 3.26794 0.315801
LeftArm  -21.6342 3.7497 -16.924
LeftForeArm  -4.13986 1.28389 2.89433
LeftHand  -0.0312833 3.40915 0.0905433
RightShoulder  0.121469 -2.08497 -0.134941
RightArm  -9.58535 0.513061 10.4924
RightForeArm  -0.673553 -1.19168 -2.90816
RightHand  0.0201019 3.64455 -4.40821e-005
LeftUpLeg  3.74969 8.72953 7.40362
LeftLeg  2.46327 -4.20344 0.627927
LeftFoot  -2.63719 0.284352 -3.44058
LeftToes  -5.63919e-011 3.32596e-011 1.92487e-011
27
root  13.3415 39.902 1.44354 -141.477 -89.3317 138.533
RightUpLeg  3.42173 -9.24619 -7.92951
RightLeg  2.01161 6.50431 -0.933653
RightFoot  -2.60178 -0.438237 5.50604
RightToes  -8.73116e-010 0 -3.6325e-017
Spine  1.80851 0.417715 1.34018
Spine1  2.43254 0.535766 -0.690572
HEad  -8.42068 -6.66501 -2.83761
LeftShoulder1  0.0154334 3.31842 0.156024
LeftArm  -21.5938 3.71518 -16.7968
LeftForeArm  -4.11273 1.31192 2.87265
LeftHand  -0.0320155 3.35816 0.0539317
RightShoulder  0.122026 -2.0034 -0.342809
RightArm  -9.80885 0.433562 10.6531
RightForeArm  -0.484266 -1.17969 -3.00589
RightHand  0.0203483 3.5906 0.0109794
LeftUpLeg  3.78882 8.72878 7.39229
LeftLeg  2.40523 -4.20793 0.613378
LeftFoot  -2.61657 0.286159 -3.46872
LeftToes  -5.63919e-011 3.32596e-011 1.92487e-011
28
root  13.3418 39.9017 1.4398 -140.336 -89.3368 137.382
RightUpLeg  3.41401 -9.2429 -7.92662
RightLeg  2.037 6.48616 -0.940285
RightFoot  -2.59896 -0.43377 5.43874
RightToes  -8.73116e-010 0 -3.6325e-017
Spine  1.85744 0.45109 1.37141
Spine1  2.33707 0.584356 -0.752227
HEad  -8.46658 -6.70237 -2.70018
LeftShoulder1  0.0285288 3.16103 0.159116
LeftArm  -21.5141 3.72492 -16.748
LeftForeArm  -4.34672 1.36924 2.83225
LeftHand  -0.0337414 3.49356 0.227788
RightShoulder  0.122512 -1.99683 -0.306709
RightArm  -9.7845 0.367541 10.5675
RightForeArm  -0.682181 -1.21815 -3.00729
RightHand  0.000403056 3.66126 -0.252508
LeftUpLeg  3.79359 8.68773 7.35723
LeftLeg  2.39213 -4.19529 0.671412
LeftFoot  -2.56999 0.286677 -3.47678
LeftToes  -5.63919e-011 3.32596e-011 1.92487e-011
29
root  13.3428 39.9015 1.43509 -139.492 -89.3684 136.535
RightUpLeg  3.42197 -9.2335 -7.90349
RightLeg  2.0449 6.45531 -0.939936
RightFoot  -2.59416 -0.430831 5.3951
RightToes  -8.73116e-010 0 -3.6325e-017
Spine  1.97527 0.415084 1.47654
Spine1  2.18045 0.584806 -0.924012
HEad  -8.43737 -6.6071 -2.55724
LeftShoulder1  0.0212884 3.24405 0.276883
LeftArm  -21.3347 3.72064 -16.7416
LeftForeArm  -4.51917 1.29278 2.70509
LeftHand  -0.0341414 3.5343 0.358468
RightShoulder  0.122933 -2.00751 -0.223816
RightArm  -9.61963 0.421721 10.5109
RightForeArm  -1.02958 -1.23889 -2.92902
RightHand  -0.0274322 3.45116 -0.606756
LeftUpLeg  3.81346 8.71483 7.39962
LeftLeg  2.35323 -4.24939 0.640448
LeftFoot  -2.58005 0.284687 -3.44579
LeftToes  -5.63919e-011 3.32596e-011 1.92487e-011
30
root  13.344 39.9013 1.4292 -139.658 -89.3793 136.697
RightUpLeg  3.43482 -9.21744 -7.89113
RightLeg  2.04566 6.44013 -0.939404
RightFoot  -2.6513 -0.440786 5.55187
RightToes  -8.73116e-010 0 -3.6325e-017
Spine  1.98632 0.422302 1.48629
Spine1  2.12117 0.59973 -0.973097
HEad  -8.35105 -6.62214 -2.58578
LeftShoulder1  0.0330151 3.09958 0.355344
LeftArm  -21.4096 3.85234 -16.7864
LeftForeArm  -4.52703 1.31299 2.76972
LeftHand  -0.033014 3.48413 0.536491
RightShoulder  0.12329 -1.9833 -0.227035
RightArm  -9.62022 0.367721 10.4728
RightForeArm  -0.969753 -1.21922 -2.93629
RightHand  -0.0114972 3.52067 -0.399029
LeftUpLeg  3.80947 8.73918 7.42755
LeftLeg  2.35991 -4.27632 0.63196
LeftFoot  -2.6222 0.289388 -3.51898
LeftToes  -5.63919e-011 3.32596e-011 1.92487e-011
31
root  13.345 39.9011 1.42755 -139.17 -89.4014 136.181
RightUpLeg  3.4713 -9.2214 -7.88009
RightLeg  2.03716 6.41814 -0.939154
RightFoot  -2.58241 -0.433219 5.43643
RightToes  -8.73116e-010 0 -3.6325e-017
Spine  1.98342 0.427338 1.44674
Spine1  2.14394 0.589121 -0.882239
HEad  -8.49972 -6.55141 -2.6255
LeftShoulder1  0.0269404 3.16036 0.290825
LeftArm  -21.4694 3.70608 -16.7984
LeftForeArm  -4.64881 1.38954 2.80095
LeftHand  -0.031829 3.43729 0.618539
RightShoulder  0.12356 -2.03426 -0.233634
RightArm  -9.6913 0.486747 10.4243
RightForeArm  -0.693642 -1.24842 -2.96242
RightHand  -0.00496938 3.34703 -0.310789
LeftUpLeg  3.86028 8.76107 7.46254
LeftLeg  2.31923 -4.34704 0.609867
LeftFoot  -2.56957 0.288943 -3.51205
LeftToes  -5.63919e-011 3.32596e-011 1.92487e-011
32
root  13.3454 39.901 1.42324 -136.936 -89.3864 133.961
RightUpLeg  3.46425 -9.21916 -7.89127
RightLeg  2.01806 6.41066 -0.948258
RightFoot  -2.5827 -0.432418 5.4263
RightToes  -8.73116e-010 0 -3.6325e-017
Spine  1.92146 0.444576 1.4423
Spine1  2.19442 0.622182 -0.972245
HEad  -8.55224 -6.54768 -2.54201
LeftShoulder1  0.0285072 3.09839 0.389977
LeftArm  -21.53 3.74601 -16.8676
LeftForeArm  -4.53791 1.33433 2.83255
LeftHand  -0.0327455 3.58301 0.554364
RightShoulder  0.12375 -2.04411 -0.147755
RightArm  -9.58589 0.504265 10.3259
RightForeArm  -0.929036 -1.27832 -2.91777
RightHand  -0.00605903 3.50651 -0.337836
LeftUpLeg  3.84184 8.75713 7.43985
LeftLeg  2.31883 -4.3249 0.589522
LeftFoot  -2.51437 0.278907 -3.35582
LeftToes  -5.63919e-011 3.32596e-011 1.92487e-011
33
root  13.3449 39.9009 1.42138 -135.53 -89.3823 132.555
RightUpLeg  3.4516 -9.24173 -7.90664
RightLeg  2.04165 6.38889 -0.933
RightFoot  -2.58969 -0.428949 5.37499
RightToes  -8.73116e-010 0 -3.6325e-017
Spine  2.01929 0.404256 1.483
Spine1  2.07229 0.612895 -1.13179
HEad  -8.69123 -6.31924 -2.33144
LeftShoulder1  0.03209 3.1278 0.550377
LeftArm  -21.4286 3.89248 -16.9002
LeftForeArm  -4.61636 1.21596 2.76881
LeftHand  -0.0302464 3.46663 0.607662
RightShoulder  0.123848 -2.0643 0.00232877
RightArm  -9.60946 0.605453 10.264
RightForeArm  -0.830922 -1.28598 -2.91932
RightHand  -0.00896221 3.69489 -0.371274
LeftUpLeg  3.8146 8.73228 7.39405
LeftLeg  2.37534 -4.2575 0.641784
LeftFoot  -2.55972 0.27759 -3.33533
LeftToes  -5.63919e-011 3.32596e-011 1.92487e-011
34
root  13.344 39.901 1.42161 -138.503 -89.3741 135.571
RightUpLeg  3.38278 -9.20995 -7.87085
RightLeg  2.07256 6.39535 -0.94292
RightFoot  -2.60936 -0.431918 5.42405
RightToes  -8.73116e-010 0 -3.6325e-017
Spine  2.02634 0.439795 1.54135
Spine1  1.9654 0.662978 -1.21128
HEad  -8.79012 -6.24426 -2.25508
LeftShoulder1  0.0349183 3.05982 0.627169
LeftArm  -21.5927 3.90884 -17.0094
LeftForeArm  -4.55235 1.2007 2.86256
LeftHand  -0.0311892 3.72371 0.67676
RightShoulder  0.123851 -2.06393 0.0945634
RightArm  -9.56224 0.63541 10.1554
RightForeArm  -0.798184 -1.37092 -2.91722
RightHand  -0.00627526 3.74537 -0.33979
LeftUpLeg  3.76982 8.73722 7.42339
LeftLeg  2.39368 -4.276 0.630931
LeftFoot  -2.60157 0.286647 -3.47632
LeftToes  -5.63919e-011 3.32596e-011 1.92487e-011
35
root  13.3435 39.9011 1.42157 -141.45 -89.3614 138.492
RightUpLeg  3.38807 -9.19686 -7.85958
RightLeg  2.10754 6.44621 -0.932394
RightFoot  -2.61873 -0.433432 5.45093
RightToes  -8.73116e-010 0 -3.6325e-017
Spine  2.07642 0.459405 1.58356
Spine1  1.9426 0.698048 -1.29856
HEad  -8.97871 -6.30814 -2.36947
LeftShoulder1  0.0331895 3.07959 0.710844
LeftArm  -21.5979 3.86947 -17.1125
LeftForeArm  -4.5701 1.20432 2.86711
LeftHand  -0.0266888 3.46647 0.497686
RightShoulder  0.123745 -2.09502 0.203639
RightArm  -9.45277 0.710847 10.055
RightForeArm  -0.877408 -1.41143 -2.87255
RightHand  0.000403451 3.98696 -0.263313
LeftUpLeg  3.77303 8.77399 7.45765
LeftLeg  2.45636 -4.28684 0.602884
LeftFoot  -2.59324 0.278447 -3.34867
LeftToes  -5.63919e-011 3.32596e-011 1.92487e-011
36
root  13.3441 39.9012 1.42003 -138.256 -89.3868 135.254
RightUpLeg  3.42852 -9.23955 -7.89915
RightLeg  2.15684 6.46361 -0.913869
RightFoot  -2.65062 -0.429594 5.39513
RightToes  -8.73116e-010 0 -3.6325e-017
Spine  2.15107 0.427043 1.52514
Spine1  1.91853 0.654642 -1.21021
HEad  -9.13709 -6.26189 -2.31469
LeftShoulder1  0.024799 3.1931 0.549742
LeftArm  -21.3659 3.72513 -16.9674
LeftForeArm  -4.67077 1.17478 2.69451
LeftHand  -0.0293213 3.70416 0.633002
RightShoulder  0.123657 -2.07233 0.222146
RightArm  -9.66117 0.704179 10.1352
RightForeArm  -0.897257 -1.32341 -2.93163
RightHand  -0.0147943 3.85674 -0.449023
LeftUpLeg  3.88369 8.77022 7.47029
LeftLeg  2.30444 -4.38415 0.601358
LeftFoot  -2.57355 0.293588 -3.58438
LeftToes  -5.63919e-011 3.32596e-011 1.92487e-011
37
root  13.3473 39.9023 1.41315 -139.733 -89.3822 136.717
RightUpLeg  3.4232 -9.21583 -7.86989
RightLeg  2.17915 6.45136 -0.921099
RightFoot  -2.6593 -0.430146 5.40815
RightToes  -8.73116e-010 0 -3.6325e-017
Spine  2.24095 0.427932 1.52667
Spine1  1.85642 0.665046 -1.26482
HEad  -9.3326 -6.10993 -2.17348
LeftShoulder1  0.0300506 3.13147 0.44204
LeftArm  -21.2888 3.72007 -16.9751
LeftForeArm  -4.90262 1.17022 2.64295
LeftHand  -0.0359088 3.28215 1.04985
RightShoulder  0.120657 -2.12015 0.308619
RightArm  -9.80229 0.608535 10.2819
RightForeArm  -0.794906 -1.02915 -2.95545
RightHand  -0.0112264 3.66654 -0.399575
LeftUpLeg  3.92519 8.85015 7.53454
LeftLeg  2.25908 -4.44286 0.549481
LeftFoot  -2.53996 0.293576 -3.58419
LeftToes  -5.63919e-011 3.32596e-011 1.92487e-011
